<svg width="16" height="16" viewBox="0 0 16 16" fill="none" xmlns="http://www.w3.org/2000/svg">
<rect width="16" height="16" fill="#F2F2F2"/>
<g id="Square_Projects_Kanban" clip-path="url(#clip0_0_1724)">
<rect width="1600" height="1024" transform="translate(-369 -313)" fill="#FAFAFB"/>
<g id="#Pending">
<rect id="Shape" x="-79.5" y="-135.5" width="303" height="509" rx="23.5" stroke="#E2E2EA"/>
<mask id="mask0_0_1724" style="mask-type:luminance" maskUnits="userSpaceOnUse" x="-80" y="-136" width="304" height="510">
<rect id="Shape_2" x="-79.5" y="-135.5" width="303" height="509" rx="23.5" fill="white" stroke="white"/>
</mask>
<g mask="url(#mask0_0_1724)">
</g>
<g id="Card_Project" clip-path="url(#clip1_0_1724)">
<rect id="Background" x="-74" y="-79" width="292" height="192" rx="20" fill="white"/>
<g id="Task Progress">
<g id="ic_Assignments" clip-path="url(#clip2_0_1724)">
<g id="Group 30">
<path id="Path 2" fill-rule="evenodd" clip-rule="evenodd" d="M7.32118 9.26017L5.67743 7.63757C5.48091 7.44358 5.16433 7.44563 4.97034 7.64215C4.77634 7.83867 4.77839 8.15525 4.97492 8.34924L7.00768 10.3558C7.21669 10.5622 7.55768 10.5448 7.7446 10.3182L11.0452 6.31824C11.2209 6.10524 11.1907 5.7901 10.9777 5.61435C10.7647 5.4386 10.4496 5.4688 10.2738 5.68179L7.32118 9.26017Z" fill="#92929D"/>
<path id="Rectangle 97" fill-rule="evenodd" clip-rule="evenodd" d="M6.3335 0.833374H9.66683C12.7044 0.833374 15.1668 3.29581 15.1668 6.33337V9.66671C15.1668 12.7043 12.7044 15.1667 9.66683 15.1667H6.3335C3.29593 15.1667 0.833496 12.7043 0.833496 9.66671V6.33337C0.833496 3.29581 3.29593 0.833374 6.3335 0.833374ZM6.3335 1.83337C3.84821 1.83337 1.8335 3.84809 1.8335 6.33337V9.66671C1.8335 12.152 3.84821 14.1667 6.3335 14.1667H9.66683C12.1521 14.1667 14.1668 12.152 14.1668 9.66671V6.33337C14.1668 3.84809 12.1521 1.83337 9.66683 1.83337H6.3335Z" fill="#92929D"/>
</g>
</g>
</g>
</g>
</g>
</g>
<defs>
<clipPath id="clip0_0_1724">
<rect width="1600" height="1024" fill="white" transform="translate(-369 -313)"/>
</clipPath>
<clipPath id="clip1_0_1724">
<rect width="292" height="192" fill="white" transform="translate(-74 -79)"/>
</clipPath>
<clipPath id="clip2_0_1724">
<rect width="16" height="16" fill="white"/>
</clipPath>
</defs>
</svg>
